<?xml version="1.0" encoding="UTF-8" standalone="no"?>
<!-- Created with Inkscape (http://www.inkscape.org/) -->

<svg
   width="336.89523mm"
   height="227.28577mm"
   viewBox="0 0 336.89523 227.28577"
   version="1.1"
   id="svg114"
   inkscape:version="1.2.2 (732a01da63, 2022-12-09)"
   sodipodi:docname="Инженерная школа.svg"
   xmlns:inkscape="http://www.inkscape.org/namespaces/inkscape"
   xmlns:sodipodi="http://sodipodi.sourceforge.net/DTD/sodipodi-0.dtd"
   xmlns="http://www.w3.org/2000/svg"
   xmlns:svg="http://www.w3.org/2000/svg">
  <sodipodi:namedview
     id="namedview116"
     pagecolor="#ffffff"
     bordercolor="#999999"
     borderopacity="1"
     inkscape:showpageshadow="0"
     inkscape:pageopacity="0"
     inkscape:pagecheckerboard="0"
     inkscape:deskcolor="#d1d1d1"
     inkscape:document-units="mm"
     showgrid="false"
     inkscape:zoom="0.914906"
     inkscape:cx="414.25021"
     inkscape:cy="165.04428"
     inkscape:window-width="2560"
     inkscape:window-height="1346"
     inkscape:window-x="-11"
     inkscape:window-y="-11"
     inkscape:window-maximized="1"
     inkscape:current-layer="layer1" />
  <defs
     id="defs111" />
  <g
     inkscape:label="Слой 1"
     inkscape:groupmode="layer"
     id="layer1"
     transform="translate(4.76505,-104.69695)">
    <path
       style="fill:#ffffff;fill-opacity:1;stroke-width:1.32116"
       d="M -4.76505,218.31656 V 104.69695 h 26.42316 26.42317 v 71.34254 71.34255 h 1.21408 1.21409 l 11.14012,-19.48708 11.14012,-19.48709 0.52709,-1.35115 0.52708,-1.35115 28.91074,-50.50431 28.91073,-50.50431 h 26.9082 26.90818 v 98.42629 98.42629 h 15.8539 15.8539 V 251.34552 201.1415 h 20.47795 20.47795 v 50.20402 50.20401 h 15.8539 15.85389 l 0.11838,-25.43229 0.11837,-25.4323 0.16338,-24.77172 0.16336,-24.77172 h 20.85675 20.85675 v 65.4206 65.42061 l -100.07772,-0.35356 -100.07772,-0.35356 -0.66058,-71.34254 -0.66058,-71.34255 -4.07964,5.94521 -4.07964,5.94521 -11.59908,20.47795 -11.59906,20.47796 -25.82625,45.24967 -25.82631,45.24967 H 21.43928 -4.76505 Z m 237.70213,-29.31601 -0.10632,-0.41005 -1.54513,-5.94521 -1.54512,-5.94522 -3.71858,-0.42628 -3.71858,-0.42629 -3.17101,2.07774 -3.17102,2.07773 h -1.82346 -1.82345 l -2.1865,-2.41606 -2.18651,-2.41605 0.0293,-1.87771 0.0293,-1.87771 2.46334,-3.20461 2.46334,-3.20461 -1.28126,-3.67542 -1.28126,-3.67541 -5.50521,-1.08194 -5.50523,-1.08194 -0.39845,-5.42009 -0.39843,-5.42009 5.02249,-0.93862 5.0225,-0.93862 1.65145,-1.3647 1.65144,-1.3647 v -3.03407 -3.03406 l -2.31202,-4.03652 -2.31203,-4.03653 3.5188,-3.52278 3.51878,-3.52278 3.59546,2.82819 3.59546,2.82818 2.79444,-0.0202 2.79443,-0.0202 1.61499,-1.02607 1.61499,-1.02608 1.08646,-5.22919 1.08646,-5.2292 h 5.17594 5.17593 l 1.19503,5.05311 1.19504,5.05311 3.29145,1.49968 3.29144,1.49969 4.95779,-2.85334 4.9578,-2.85334 3.44587,3.59672 3.44588,3.59672 -2.5929,3.93367 -2.59291,3.93367 -0.009,2.89464 -0.009,2.89463 1.65144,1.06884 1.65145,1.06884 4.47274,1.32116 4.47276,1.32116 0.97032,2.64231 0.97032,2.64232 -1.05807,2.84107 -1.05808,2.84106 -5.38002,0.90895 -5.38,0.90895 -0.86539,3.44796 -0.86538,3.44796 2.785,4.83905 2.785,4.83905 -3.56692,3.36596 -3.56691,3.36595 -4.37519,-3.03729 -4.37519,-3.03729 -2.58147,0.67507 -2.58149,0.67508 -0.97027,1.49198 -0.96911,1.49196 -1.35601,4.62406 -1.356,4.62405 -4.9195,0.41005 -4.91949,0.41003 -0.10636,-0.41003 z m 12.71737,-30.73664 3.24285,-3.24284 v -4.50594 -4.50594 l -2.7382,-3.48106 -2.73821,-3.48107 h -5.24879 -5.2488 l -3.24284,3.24285 -3.24285,3.24284 0.0202,4.35382 0.0202,4.35381 0.97063,1.39774 0.97064,1.39774 3.26658,2.23545 3.26656,2.23544 h 3.72957 3.72956 l 3.24283,-3.24284 z"
       id="path1389" />
  </g>
</svg>
